<?xml version="1.0" encoding="UTF-8"?>
<svg version="1.1" xmlns="http://www.w3.org/2000/svg" width="512" height="512">
<path d="M0 0 C168.96 0 337.92 0 512 0 C512 168.96 512 337.92 512 512 C343.04 512 174.08 512 0 512 C0 343.04 0 174.08 0 0 Z " fill="#FCEDD9" transform="translate(0,0)"/>
<path d="M0 0 C17.82557883 14.868864 27.36636345 35.21798242 30.44921875 58.04296875 C31.71090972 81.0688289 26.17416225 101.62909151 15.32421875 121.85546875 C5.68916296 139.82937133 2.71603866 154.86987612 8.44921875 175.04296875 C11.05712942 183.5460889 13.84334984 191.88699702 18.56640625 199.4765625 C19.44921875 201.04296875 19.44921875 201.04296875 19.44921875 203.04296875 C-17.18078125 203.04296875 -53.81078125 203.04296875 -91.55078125 203.04296875 C-91.88078125 199.41296875 -92.21078125 195.78296875 -92.55078125 192.04296875 C-94.44200337 186.43090572 -97.08007548 181.58370813 -101.17578125 177.29296875 C-107.05282616 175.11628545 -113.24756079 175.45735626 -119.37109375 176.54296875 C-123.4061996 177.17748171 -127.34686653 177.3043972 -131.42578125 177.35546875 C-132.19019531 177.38447266 -132.95460937 177.41347656 -133.7421875 177.44335938 C-139.48403076 177.50672437 -143.75188763 176.23849698 -148.55078125 173.04296875 C-152.11102911 169.3937147 -152.78810953 166.60880087 -152.86328125 161.66796875 C-152.75594762 158.23795925 -152.39998031 154.97990554 -151.80078125 151.60546875 C-151.71828125 150.42984375 -151.63578125 149.25421875 -151.55078125 148.04296875 C-152.86344643 146.68928279 -154.1964545 145.35497279 -155.55078125 144.04296875 C-155.376722 140.6778232 -155.06256627 138.0665388 -153.55078125 135.04296875 C-154.39640625 134.32109375 -155.24203125 133.59921875 -156.11328125 132.85546875 C-158.55078125 130.04296875 -158.55078125 130.04296875 -158.48828125 127.54296875 C-157.8552422 125.85486461 -157.16562609 124.18706839 -156.42578125 122.54296875 C-155.35562707 119.48538537 -155.49044999 118.08962191 -156.55078125 115.04296875 C-158.77203963 113.6426138 -158.77203963 113.6426138 -161.48828125 112.85546875 C-166.39860734 111.19514266 -166.39860734 111.19514266 -168.55078125 109.04296875 C-169.74771743 102.79230203 -167.21864312 99.26012588 -163.76171875 94.15234375 C-162.16699867 91.90959255 -160.56894577 89.66961474 -158.96484375 87.43359375 C-158.52382324 86.8187915 -158.08280273 86.20398926 -157.62841797 85.57055664 C-156.76397302 84.37244675 -155.89348786 83.17866439 -155.01611328 81.98999023 C-149.10741476 73.90039367 -148.27743007 68.97809874 -148.67578125 59.16796875 C-149.04410034 39.23701423 -142.44580821 22.61680546 -128.68676758 8.17016602 C-127.32232055 6.78033393 -125.93691219 5.41117558 -124.55078125 4.04296875 C-123.79796875 3.29144531 -123.04515625 2.53992188 -122.26953125 1.765625 C-114.14353808 -5.90401711 -104.19557346 -11.58714459 -93.55078125 -14.95703125 C-92.39578125 -15.32957031 -91.24078125 -15.70210937 -90.05078125 -16.0859375 C-59.52125871 -24.8300663 -25.1703666 -19.45153891 0 0 Z " fill="#BF8658" transform="translate(315.55078125,163.95703125)"/>
<path d="M0 0 C3.078125 0.76953125 3.078125 0.76953125 6.25 1.8125 C10.31687054 3.13562569 14.37259169 4.38164535 18.5 5.5 C23.80264224 7.08390612 26.9110379 9.36655684 30 14 C30 14.99 30 15.98 30 17 C30.53625 16.7525 31.0725 16.505 31.625 16.25 C34.61895179 15.93484718 35.98543015 16.93957797 38.39501953 18.62695312 C41.38723667 21.18676894 43.45941562 24.36424758 45.625 27.625 C46.10573975 28.33487061 46.58647949 29.04474121 47.08178711 29.77612305 C50.10909992 34.35217271 52.57871877 38.8509617 54.31640625 44.08203125 C55.01350574 46.28368363 55.01350574 46.28368363 57 49 C57.65122227 52.63701493 57.79729615 56.31361838 58 60 C58.09861328 61.48113281 58.09861328 61.48113281 58.19921875 62.9921875 C58.48230182 70.19616363 58.48230182 70.19616363 56.125 74.125 C52.67479375 77.16929963 50.54323916 77.18930163 46 77 C45.34 76.67 44.68 76.34 44 76 C44.33 74.35 44.66 72.7 45 71 C44.484375 71.804375 43.96875 72.60875 43.4375 73.4375 C40.36794243 76.66447078 38.35131541 76.74896257 34 77 C33.67 76.34 33.34 75.68 33 75 C33.33 74.401875 33.66 73.80375 34 73.1875 C35.29829297 70.34748412 34.90602464 68.94458009 34 66 C33.34 65.01 32.68 64.02 32 63 C32.9075 62.34 33.815 61.68 34.75 61 C38.44506865 57.96163787 40.16700722 54.34527112 42 50 C43.98 50 45.96 50 48 50 C48 49.34 48 48.68 48 48 C46.824375 48.0928125 46.824375 48.0928125 45.625 48.1875 C44.75875 48.125625 43.8925 48.06375 43 48 C42.34 47.01 41.68 46.02 41 45 C40.85304688 45.80824219 40.70609375 46.61648437 40.5546875 47.44921875 C38.49398731 57.26715239 38.49398731 57.26715239 35 60.1875 C32 62 32 62 29 63 C30.2684375 63.7734375 30.2684375 63.7734375 31.5625 64.5625 C34 67 34 67 34.0625 70.5625 C32.8446453 74.50261814 32.48653252 75.01619002 29 77 C25.08828559 78.21080268 21.08410485 79.05624171 17.0859375 79.9296875 C11.38210128 81.29286848 8.34304453 83.10091114 4 87 C2.05375608 87.2552451 0.10377725 87.50512262 -1.85546875 87.625 C-5.25236258 88.21899236 -7.85192702 90.00569311 -10.7265625 91.84375 C-15.91076585 94.4803895 -21.39853383 94.09903993 -27.0625 93.75 C-28.10374023 93.70939453 -28.10374023 93.70939453 -29.16601562 93.66796875 C-35.61400546 93.28831503 -39.41986134 91.02153904 -43.8125 86.4375 C-47.07452598 82.53165311 -48.0067747 79.58807112 -47.6171875 74.5234375 C-46.05055559 68.11809436 -41.67984216 62.5294251 -36.1953125 58.9140625 C-32.29448436 57.28987427 -28.17021743 57.01107623 -23.98828125 56.65234375 C-20.46162892 55.88247324 -19.31927033 54.68574645 -17 52 C-14.72987504 50.86493752 -13.2697364 50.86998745 -10.75 50.75 C-5.65339007 50.25097399 -3.65395632 48.48400487 0 45 C2.93659778 43.2125057 5.07801257 42.74804476 8.5 42.8125 C9.2528125 42.81894531 10.005625 42.82539063 10.78125 42.83203125 C12.95990143 42.99696437 14.90204811 43.40399094 17 44 C16.35804688 43.48695313 15.71609375 42.97390625 15.0546875 42.4453125 C12.34685228 39.22267971 12.34230896 37.03863965 12.125 32.875 C12.00511719 31.01488281 12.00511719 31.01488281 11.8828125 29.1171875 C12 26 12 26 14 24 C12.35 24.66 10.7 25.32 9 26 C9.49113281 26.84304687 9.49113281 26.84304687 9.9921875 27.703125 C11.11785494 30.26859964 11.2068111 31.96842277 11.125 34.75 C11.10695313 35.54921875 11.08890625 36.3484375 11.0703125 37.171875 C11.04710937 37.77515625 11.02390625 38.3784375 11 39 C6.44573816 41.66590937 3.26053037 42.31563182 -2 42 C-1.98839844 41.34773438 -1.97679687 40.69546875 -1.96484375 40.0234375 C-1.8909055 34.41145313 -1.8909055 34.41145313 -2.6875 28.875 C-3.21658034 24.00746086 -1.58953318 20.00532388 1.43359375 16.19140625 C3.83938222 13.68962622 5.68260678 12.10579774 9 11 C7.68 10.67 6.36 10.34 5 10 C5 8.35 5 6.7 5 5 C4.34 5 3.68 5 3 5 C3.28875 6.010625 3.5775 7.02125 3.875 8.0625 C4.01053974 12.3320017 3.92786973 12.59127943 1.25 15.5 C0.69570313 16.06847656 0.14140625 16.63695312 -0.4296875 17.22265625 C-2.78860663 19.89257716 -3.77913073 22.67652254 -5 26 C-6.65 25.67 -8.3 25.34 -10 25 C-10 25.66 -10 26.32 -10 27 C-9.21625 27.268125 -8.4325 27.53625 -7.625 27.8125 C-5 29 -5 29 -3 32 C-2.6640625 34.77734375 -2.6640625 34.77734375 -2.625 37.9375 C-2.59664063 38.97777344 -2.56828125 40.01804688 -2.5390625 41.08984375 C-3.10562336 44.66685938 -4.21539521 45.76921066 -7 48 C-9.95664519 49.4783226 -12.74229737 49.06032783 -16 49 C-16.66 47.35 -17.32 45.7 -18 44 C-17.8453125 45.36125 -17.8453125 45.36125 -17.6875 46.75 C-18 50 -18 50 -20.3125 52.3125 C-23.93016115 54.58405467 -26.50262719 55.12315033 -30.6875 55.0625 C-31.89986328 55.04896484 -31.89986328 55.04896484 -33.13671875 55.03515625 C-33.75160156 55.02355469 -34.36648437 55.01195312 -35 55 C-35.99 52.36 -36.98 49.72 -38 47 C-38.22036864 50.85645121 -37.60355101 53.49223216 -36 57 C-37.6875 58.625 -37.6875 58.625 -40 60 C-44.01242357 58.79077646 -47.31856321 56.6481637 -50.8125 54.375 C-51.78832031 53.74335938 -52.76414063 53.11171875 -53.76953125 52.4609375 C-54.50558594 51.97882813 -55.24164063 51.49671875 -56 51 C-53.43075944 53.70811843 -50.94953588 55.83027847 -47.75 57.75 C-47.04359375 58.17796875 -46.3371875 58.6059375 -45.609375 59.046875 C-45.07828125 59.36140625 -44.5471875 59.6759375 -44 60 C-44.875 64.75 -44.875 64.75 -46 67 C-48.10388569 67.05402274 -50.20816714 67.09280256 -52.3125 67.125 C-53.48425781 67.14820313 -54.65601563 67.17140625 -55.86328125 67.1953125 C-59 67 -59 67 -62 65 C-63.54766142 64.4172881 -65.11192222 63.87735813 -66.6875 63.375 C-67.49574219 63.11460937 -68.30398437 62.85421875 -69.13671875 62.5859375 C-69.75160156 62.39257812 -70.36648437 62.19921875 -71 62 C-69.54033941 63.45966059 -67.86747367 63.85790644 -65.9375 64.5625 C-65.20402344 64.83191406 -64.47054687 65.10132813 -63.71484375 65.37890625 C-63.14894531 65.58386719 -62.58304688 65.78882813 -62 66 C-62 66.66 -62 67.32 -62 68 C-55.07 68.495 -55.07 68.495 -48 69 C-48 69.99 -48 70.98 -48 72 C-65.57022104 72.82360411 -65.57022104 72.82360411 -71 68 C-76.09545845 62.06865736 -78.94023093 55.79982278 -79.3125 47.9375 C-78.98328279 43.78936313 -78.29808465 41.44712698 -76 38 C-73.8125 36.625 -73.8125 36.625 -72 36 C-72.33 35.67 -72.66 35.34 -73 35 C-73.2315216 29.5592423 -71.50896041 27.00687486 -67.9375 22.9375 C-64.45782771 19.2918656 -60.8853138 16.10971038 -56.75 13.234375 C-54.83798389 11.94776097 -54.83798389 11.94776097 -52.75 9.875 C-45.97706006 5.2570864 -38.09969581 3.40002253 -30 4 C-29.34 4 -28.68 4 -28 4 C-27.62875 3.505 -27.2575 3.01 -26.875 2.5 C-24.35180773 0.48144618 -22.15642623 0.5775126 -19.00390625 0.72265625 C-15.9376389 1.14703243 -14.26293688 1.87421081 -12 4 C-11.1875 7.6875 -11.1875 7.6875 -11 11 C-12.32 11 -13.64 11 -15 11 C-15 12.32 -15 13.64 -15 15 C-16.34765625 16.89453125 -16.34765625 16.89453125 -18.0625 18.8125 C-20.74103526 22.19251598 -20.74103526 22.19251598 -20.9375 26.5625 C-20.628125 27.696875 -20.31875 28.83125 -20 30 C-19.66666667 32.33333333 -19.33333333 34.66666667 -19 37 C-18.01 37 -17.02 37 -16 37 C-16.7425 35.4840625 -16.7425 35.4840625 -17.5 33.9375 C-19.10209099 30.13540847 -19.52867318 27.15386071 -19 23 C-17.04003184 19.30621385 -14.8026568 16.81899341 -11.6875 14.125 C-9.73713986 12.28706663 -9.04077887 11.54902282 -8.83984375 8.84375 C-9.11674478 6.37097674 -9.11674478 6.37097674 -10 3 C-6.62293701 -0.11728891 -4.51777589 -0.28848448 0 0 Z " fill="#F9EDD5" transform="translate(268,163)"/>
<path d="M0 0 C3.05154562 0.86901627 6.02814576 1.89050775 9 3 C8.01 3.33 7.02 3.66 6 4 C5.67 4.66 5.34 5.32 5 6 C4.34 5.67 3.68 5.34 3 5 C3.28875 6.010625 3.5775 7.02125 3.875 8.0625 C4.01053974 12.3320017 3.92786973 12.59127943 1.25 15.5 C0.69570313 16.06847656 0.14140625 16.63695312 -0.4296875 17.22265625 C-2.78860663 19.89257716 -3.77913073 22.67652254 -5 26 C-6.65 25.67 -8.3 25.34 -10 25 C-10 25.66 -10 26.32 -10 27 C-9.21625 27.268125 -8.4325 27.53625 -7.625 27.8125 C-5 29 -5 29 -3 32 C-2.6640625 34.77734375 -2.6640625 34.77734375 -2.625 37.9375 C-2.59664063 38.97777344 -2.56828125 40.01804688 -2.5390625 41.08984375 C-3.10562336 44.66685938 -4.21539521 45.76921066 -7 48 C-9.95664519 49.4783226 -12.74229737 49.06032783 -16 49 C-17.485 43.555 -17.485 43.555 -19 38 C-17.515 37.505 -17.515 37.505 -16 37 C-16.495 35.989375 -16.99 34.97875 -17.5 33.9375 C-19.10209099 30.13540847 -19.52867318 27.15386071 -19 23 C-17.04003184 19.30621385 -14.8026568 16.81899341 -11.6875 14.125 C-9.73713986 12.28706663 -9.04077887 11.54902282 -8.83984375 8.84375 C-9.11674478 6.37097674 -9.11674478 6.37097674 -10 3 C-6.63877874 -0.10266578 -4.51980853 -0.51167644 0 0 Z " fill="#FAEFD7" transform="translate(268,163)"/>
<path d="M0 0 C1.17175781 -0.00386719 1.17175781 -0.00386719 2.3671875 -0.0078125 C3.57761719 0.00378906 3.57761719 0.00378906 4.8125 0.015625 C5.61945313 0.00789062 6.42640625 0.00015625 7.2578125 -0.0078125 C8.03898437 -0.00523437 8.82015625 -0.00265625 9.625 0 C10.33269531 0.00225586 11.04039062 0.00451172 11.76953125 0.00683594 C14.1223713 0.30487734 15.76023951 1.10459898 17.8125 2.265625 C16.40321041 7.82861023 14.6436855 12.08217922 10.80078125 16.3671875 C5.56344219 18.73376507 -2.51336489 15.62394413 -7.9375 14.328125 C-9.04931641 14.07385742 -9.04931641 14.07385742 -10.18359375 13.81445312 C-13.74213949 12.97432967 -17.01888375 12.12510243 -20.1875 10.265625 C-20.1875 10.925625 -20.1875 11.585625 -20.1875 12.265625 C-12.53129435 13.98167109 -4.86090287 15.62834132 2.8125 17.265625 C2.8125 17.925625 2.8125 18.585625 2.8125 19.265625 C-2.8821643 22.2367542 -7.77693937 23.18570546 -14.1875 22.265625 C-18.70138257 20.73345854 -21.51849741 19.26912889 -24.1875 15.265625 C-24.625 12.890625 -24.625 12.890625 -24.1875 10.265625 C-20.69501134 5.20753798 -16.51778859 4.23211188 -10.80859375 2.94140625 C-8.23582561 2.38981984 -8.23582561 2.38981984 -6.28540039 1.23999023 C-3.99687901 0.1770915 -2.50649471 0.00798974 0 0 Z " fill="#F8EED6" transform="translate(298.1875,241.734375)"/>
<path d="M0 0 C1 1 1 1 1.0625 4.0625 C1.041875 5.031875 1.02125 6.00125 1 7 C1.66 7 2.32 7 3 7 C3.33 7.66 3.66 8.32 4 9 C4.95132812 9.42539062 4.95132812 9.42539062 5.921875 9.859375 C9.69912323 11.93260147 10.73092824 16.05397999 12 20 C12.25 23.5625 12.25 23.5625 12 26 C9.36 26 6.72 26 4 26 C3.68289063 25.29875 3.36578125 24.5975 3.0390625 23.875 C-0.28884797 17.10886158 -3.72054127 13.04841464 -9.92578125 8.75390625 C-12.18825791 6.84081394 -12.66318467 5.89152786 -13 3 C-8.42102388 0.80209146 -5.19040052 -0.49432386 0 0 Z " fill="#F6E9CB" transform="translate(271,253)"/>
<path d="M0 0 C1.17731689 -0.00193359 1.17731689 -0.00193359 2.37841797 -0.00390625 C6.23729724 0.06913771 9.35871999 0.19165775 12.625 2.375 C11.965 4.355 11.305 6.335 10.625 8.375 C9.325625 8.354375 8.02625 8.33375 6.6875 8.3125 C5.33334367 8.29100546 3.97743917 8.30351801 2.625 8.375 C2.295 8.705 1.965 9.035 1.625 9.375 C2.615 10.035 3.605 10.695 4.625 11.375 C4.295 12.035 3.965 12.695 3.625 13.375 C2.944375 12.88 2.26375 12.385 1.5625 11.875 C-4.27814496 8.892543 -11.0656626 10.5738143 -17.375 11.375 C-16.385 10.385 -15.395 9.395 -14.375 8.375 C-16.025 8.045 -17.675 7.715 -19.375 7.375 C-19.375 6.385 -19.375 5.395 -19.375 4.375 C-13.01960015 0.79809154 -7.16182631 -0.0115165 0 0 Z " fill="#EDD9BC" transform="translate(303.375,241.625)"/>
<path d="M0 0 C3.46941546 0.45822468 6.67395049 0.89131683 10 2 C8.9229468 4.23695664 7.86141543 6.18655616 6.375 8.1875 C4.47760912 12.06852681 4.38603303 15.74209919 5 20 C5.66 20.99 6.32 21.98 7 23 C6.34 23.66 5.68 24.32 5 25 C4.97746557 27.44963177 4.97746557 27.44963177 5.375 30.125 C5.48585937 31.03507812 5.59671875 31.94515625 5.7109375 32.8828125 C5.85402344 33.93082031 5.85402344 33.93082031 6 35 C2 30.25 2 30.25 2 28 C-3.70234431 26.69132689 -3.70234431 26.69132689 -8.9375 28.6875 C-10.93578058 30.92799641 -11.68522098 32.06206246 -12 35 C-13.65 34.67 -15.3 34.34 -17 34 C-17.99 31.03 -18.98 28.06 -20 25 C-22.31 25 -24.62 25 -27 25 C-26.67 24.34 -26.34 23.68 -26 23 C-23.3125 22.5 -23.3125 22.5 -20 23 C-17.91867974 25.45240837 -16.44509904 28.1353789 -15 31 C-14.236875 30.21625 -13.47375 29.4325 -12.6875 28.625 C-7.94325609 23.99108734 -7.94325609 23.99108734 -4.51953125 24.0234375 C-2.01302083 24.34895833 0.49348958 24.67447917 3 25 C2.34 21.37 1.68 17.74 1 14 C-1.82716095 13.05761302 -3.63176123 12.86534353 -6.5625 12.875 C-7.74005859 12.87113281 -7.74005859 12.87113281 -8.94140625 12.8671875 C-11.06438977 12.87023634 -11.06438977 12.87023634 -13 14 C-12.67 13.01 -12.34 12.02 -12 11 C-9.16443413 9.58221707 -7.0091294 10.13742378 -3.875 10.4375 C-2.23144531 10.59025391 -2.23144531 10.59025391 -0.5546875 10.74609375 C0.70988281 10.87177734 0.70988281 10.87177734 2 11 C4.91171789 7.33019796 4.91171789 7.33019796 6 3 C3.69 2.67 1.38 2.34 -1 2 C-0.67 1.34 -0.34 0.68 0 0 Z " fill="#B9895F" transform="translate(232,173)"/>
<path d="M0 0 C0.66 0.33 1.32 0.66 2 1 C-9.80819033 12.76823029 -9.80819033 12.76823029 -17.1171875 14.5234375 C-19.21689185 14.9507362 -19.21689185 14.9507362 -21.5625 16.625 C-24.02005074 18.01131067 -25.37616718 18.27813798 -28.125 18.5625 C-32.0563515 18.70689812 -32.0563515 18.70689812 -35 21 C-34.51515724 25.64586892 -34.51515724 25.64586892 -33 30 C-33.99 29.67 -34.98 29.34 -36 29 C-36.20625 27.88625 -36.4125 26.7725 -36.625 25.625 C-37.57158908 21.92818023 -37.57158908 21.92818023 -40.125 20.87109375 C-42.40470821 20.13375063 -44.65864178 19.505849 -47 19 C-47 18.01 -47 17.02 -47 16 C-46.505 16.33 -46.01 16.66 -45.5 17 C-42.00634504 18.39746198 -38.67993266 18.63549038 -35 18 C-33.3174387 16.68678142 -31.65002828 15.35386936 -30 14 C-26.1875 13.75 -26.1875 13.75 -23 14 C-21.78309467 12.23470405 -21.78309467 12.23470405 -21 10 C-21.78309467 7.76529595 -21.78309467 7.76529595 -23 6 C-19.125 7.875 -19.125 7.875 -18 9 C-14.60223721 9.67955256 -12.61842473 9.40245016 -9.70703125 7.5078125 C-7.42959809 5.71707387 -5.21603297 3.86568871 -3 2 C-2.01 1.34 -1.02 0.68 0 0 Z " fill="#BA895C" transform="translate(279,215)"/>
<path d="M0 0 C0.33 2.31 0.66 4.62 1 7 C-0.093125 6.95875 -1.18625 6.9175 -2.3125 6.875 C-6.08892229 6.67925334 -6.08892229 6.67925334 -9 9 C-11.48046875 9.4140625 -11.48046875 9.4140625 -14.1875 9.625 C-15.08855469 9.69976562 -15.98960937 9.77453125 -16.91796875 9.8515625 C-17.60503906 9.90054688 -18.29210937 9.94953125 -19 10 C-20 7 -20 7 -20 4 C-13.16088115 1.44672896 -7.33813334 -0.5644718 0 0 Z " fill="#F3E3C9" transform="translate(238,167)"/>
<path d="M0 0 C0.66 0.99 1.32 1.98 2 3 C2.556875 2.855625 3.11375 2.71125 3.6875 2.5625 C6.11384195 1.97230872 8.54906345 1.476571 11 1 C11 1.66 11 2.32 11 3 C10.45730469 3.18433594 9.91460937 3.36867187 9.35546875 3.55859375 C4.83072242 5.38236067 4.83072242 5.38236067 1.87109375 9.09375 C1.14304353 11.38081876 0.55257928 13.66504093 0 16 C-0.64896236 17.67363977 -1.30580437 19.34461042 -2 21 C-2.33 21 -2.66 21 -3 21 C-3.22786458 18.94921875 -3.45572917 16.8984375 -3.68359375 14.84765625 C-3.81886614 12.98859771 -3.81886614 12.98859771 -5 12 C-4.69457852 6.70602769 -3.63172245 3.86602713 0 0 Z " fill="#E2C8A6" transform="translate(200,186)"/>
<path d="M0 0 C0.99 0.33 1.98 0.66 3 1 C1.02 1.99 1.02 1.99 -1 3 C-0.93981983 5.25073828 -0.85098794 7.50072325 -0.75 9.75 C-0.70359375 11.00296875 -0.6571875 12.2559375 -0.609375 13.546875 C0.08356914 17.47355847 0.9112951 18.58765384 4 21 C4.99 21.66 5.98 22.32 7 23 C1.25 22.125 1.25 22.125 -1 21 C-2.47765166 20.92990267 -3.95834814 20.91564061 -5.4375 20.9375 C-6.21996094 20.94652344 -7.00242187 20.95554688 -7.80859375 20.96484375 C-8.89333984 20.98224609 -8.89333984 20.98224609 -10 21 C-10.99 21 -11.98 21 -13 21 C-13.66 20.34 -14.32 19.68 -15 19 C-13.01432292 18.51171875 -11.02864583 18.0234375 -9.04296875 17.53515625 C-7.34316798 17.08989295 -5.66698046 16.55566015 -4 16 C-3.9727585 14.58344207 -3.95349533 13.16672955 -3.9375 11.75 C-3.92589844 10.96109375 -3.91429687 10.1721875 -3.90234375 9.359375 C-3.99614694 7.09308998 -4.36758937 5.1711105 -5 3 C-2.6875 1.4375 -2.6875 1.4375 0 0 Z " fill="#B8865B" transform="translate(282,186)"/>
<path d="M0 0 C2 2 2 2 2 5 C3.65 5 5.3 5 7 5 C7 5.66 7 6.32 7 7 C6.071875 7.020625 5.14375 7.04125 4.1875 7.0625 C3.135625 7.371875 2.08375 7.68125 1 8 C-0.44762378 10.98804344 -0.44762378 10.98804344 -1.14453125 13.14453125 C-2.62654009 16.35893398 -5.18762233 17.93758971 -8 20 C-7.484375 20.53625 -6.96875 21.0725 -6.4375 21.625 C-5 24 -5 24 -5.1875 27.0625 C-6 30 -6 30 -8 33 C-8.66 32.67 -9.32 32.34 -10 32 C-9.34 31.01 -8.68 30.02 -8 29 C-7.41649495 26.54290625 -7.41649495 26.54290625 -8 24 C-10.39859044 21.66369252 -10.39859044 21.66369252 -13 20 C-12.39671875 19.72929687 -11.7934375 19.45859375 -11.171875 19.1796875 C-6.13406534 16.46577068 -3.62606928 14.19162433 -1.93652344 8.57080078 C-1.20762092 5.72865153 -0.56400947 2.87920916 0 0 Z " fill="#C29263" transform="translate(309,206)"/>
<path d="M0 0 C2.9156164 3.54039134 5.50127818 7.1626772 8 11 C7.34 11.66 6.68 12.32 6 13 C6.32198966 16.09926819 6.32198966 16.09926819 7 19 C6.34 19 5.68 19 5 19 C4.79375 18.154375 4.5875 17.30875 4.375 16.4375 C2.88208137 12.70520343 1.08602262 10.57126072 -1.66015625 7.7109375 C-3.14610592 5.81342743 -3.58398599 4.35227673 -4 2 C-3.01 2 -2.02 2 -1 2 C-0.67 1.34 -0.34 0.68 0 0 Z " fill="#F7EACD" transform="translate(310,187)"/>
<path d="M0 0 C0 0.99 0 1.98 0 3 C-9.55513777 7.1335103 -9.55513777 7.1335103 -14 7.5 C-14.99 7.665 -15.98 7.83 -17 8 C-18.40854666 9.81701858 -18.40854666 9.81701858 -19 12 C-19.66 12.99 -20.32 13.98 -21 15 C-21.875 12.3125 -21.875 12.3125 -22 9 C-17.83210371 3.8794417 -12.91212812 2.92647517 -6.609375 1.578125 C-4.19118394 1.04235812 -2.45017251 0 0 0 Z " fill="#BE9066" transform="translate(294,240)"/>
<path d="M0 0 C1.41623216 -0.05447047 2.83308191 -0.09300508 4.25 -0.125 C5.03890625 -0.14820313 5.8278125 -0.17140625 6.640625 -0.1953125 C9.20731941 0.0171622 10.7916067 0.71345895 13 2 C12.34 3.98 11.68 5.96 11 8 C10.41992188 7.79503906 9.83984375 7.59007812 9.2421875 7.37890625 C4.8378016 5.85990187 0.64322223 4.5952849 -4 4 C-3.01 3.67 -2.02 3.34 -1 3 C-0.67 2.01 -0.34 1.02 0 0 Z " fill="#FAEFD7" transform="translate(303,242)"/>
<path d="M0 0 C1.33804688 0.04060547 1.33804688 0.04060547 2.703125 0.08203125 C3.37859375 0.11683594 4.0540625 0.15164062 4.75 0.1875 C4.75 0.8475 4.75 1.5075 4.75 2.1875 C4.08613281 2.22488281 3.42226563 2.26226562 2.73828125 2.30078125 C-2.55474019 2.69486022 -5.70723491 3.39195225 -10.25 6.1875 C-12.58969298 6.589763 -14.89423076 6.8094457 -17.26171875 6.9765625 C-19.32253947 7.07778751 -19.32253947 7.07778751 -21.25 8.1875 C-22.95702735 8.25746014 -24.66668003 8.27190154 -26.375 8.25 C-27.28507812 8.24097656 -28.19515625 8.23195312 -29.1328125 8.22265625 C-29.83148438 8.21105469 -30.53015625 8.19945312 -31.25 8.1875 C-31.25 7.5275 -31.25 6.8675 -31.25 6.1875 C-30.0125 6.249375 -28.775 6.31125 -27.5 6.375 C-24.64040418 6.51797979 -23.60242481 6.4602768 -21.296875 4.67578125 C-18.15504213 2.39135697 -15.42271346 3.1016917 -11.6875 3.375 C-9.16376637 3.40026288 -9.16376637 3.40026288 -7.265625 1.69921875 C-4.6840943 -0.23692927 -3.18208108 -0.12560846 0 0 Z " fill="#BE8E65" transform="translate(286.25,232.8125)"/>
<path d="M0 0 C0.33 0.66 0.66 1.32 1 2 C4.27555608 2.47001033 4.27555608 2.47001033 8.0625 2.625 C9.99802734 2.73714844 9.99802734 2.73714844 11.97265625 2.8515625 C13.47119141 2.92503906 13.47119141 2.92503906 15 3 C15 3.99 15 4.98 15 6 C12.5622037 6.05397335 10.12560315 6.09365616 7.6875 6.125 C6.65206055 6.15013672 6.65206055 6.15013672 5.59570312 6.17578125 C1.82864604 6.21217794 0.21568296 6.14378864 -3 4 C-2.34 4 -1.68 4 -1 4 C-0.67 2.68 -0.34 1.36 0 0 Z " fill="#F2E6CB" transform="translate(205,229)"/>
<path d="M0 0 C0.8125 1.6875 0.8125 1.6875 1 4 C-1.1875 6.5 -1.1875 6.5 -4 9 C-6.20171816 11.13499943 -8.16471111 13.20963232 -10.0625 15.625 C-12 18 -12 18 -15 20 C-15.99 19.67 -16.98 19.34 -18 19 C-16.63875 18.2265625 -16.63875 18.2265625 -15.25 17.4375 C-12.02309671 15.31890228 -10.78504665 13.04700369 -9.0703125 9.66796875 C-7.34376764 6.97733133 -4.66376381 5.67932936 -2 4 C-0.61131484 1.89960669 -0.61131484 1.89960669 0 0 Z " fill="#B98557" transform="translate(299,207)"/>
<path d="M0 0 C0.33 0.66 0.66 1.32 1 2 C0.5359375 2.8353125 0.5359375 2.8353125 0.0625 3.6875 C-1.41924346 6.91247107 -1.25078097 9.48906637 -1 13 C-0.06716704 15.20067421 -0.06716704 15.20067421 1 17 C1 17.99 1 18.98 1 20 C0.01 20 -0.98 20 -2 20 C-5.78883495 9.64836165 -5.78883495 9.64836165 -5 6 C-3.48219248 3.79707104 -1.83283668 1.97029943 0 0 Z " fill="#B57E51" transform="translate(251,180)"/>
<path d="M0 0 C0.87890625 1.70703125 0.87890625 1.70703125 1.5625 3.8125 C2.5367848 6.66869282 3.55815485 9.33813202 5 12 C3.68 11.67 2.36 11.34 1 11 C1 10.34 1 9.68 1 9 C0.34 9 -0.32 9 -1 9 C-1.2475 7.88625 -1.495 6.7725 -1.75 5.625 C-2.61005339 1.95384802 -2.61005339 1.95384802 -5.125 0.5625 C-5.74375 0.376875 -6.3625 0.19125 -7 0 C-3.98968256 -0.93423645 -3.13349732 -1.04449911 0 0 Z " fill="#B47B49" transform="translate(273,251)"/>
<path d="M0 0 C2 2 2 2 2 5 C3.65 5 5.3 5 7 5 C7 5.66 7 6.32 7 7 C6.05125 7.0825 5.1025 7.165 4.125 7.25 C0.89538209 7.65074923 0.89538209 7.65074923 -0.375 10.0625 C-0.58125 10.701875 -0.7875 11.34125 -1 12 C-2.45606519 7.47907032 -1.27032841 4.48351204 0 0 Z " fill="#CBA380" transform="translate(309,206)"/>
<path d="M0 0 C0.73605469 0.47050781 1.47210938 0.94101563 2.23046875 1.42578125 C3.20628906 2.04839844 4.18210938 2.67101562 5.1875 3.3125 C6.15042969 3.92738281 7.11335937 4.54226562 8.10546875 5.17578125 C10.71634303 6.82123103 13.3469602 8.42369665 16 10 C15.34 11.32 14.68 12.64 14 14 C13.67 13.01 13.34 12.02 13 11 C10.27111866 9.11212222 7.43269373 7.48685019 4.56640625 5.81640625 C1.99225608 3.99451914 1.0685381 2.91128643 0 0 Z " fill="#C08E5D" transform="translate(210,212)"/>
<path d="M0 0 C0.33 0.66 0.66 1.32 1 2 C1.99 2 2.98 2 4 2 C4 2.66 4 3.32 4 4 C3.360625 4.268125 2.72125 4.53625 2.0625 4.8125 C-0.33131686 5.88667752 -0.33131686 5.88667752 -1 9 C-1.66 9 -2.32 9 -3 9 C-3.66 8.01 -4.32 7.02 -5 6 C-5.66 5.67 -6.32 5.34 -7 5 C-4.69 3.35 -2.38 1.7 0 0 Z " fill="#DDC29E" transform="translate(212,176)"/>
<path d="M0 0 C0.66 0 1.32 0 2 0 C3.25664978 2.90600261 4 4.79604584 4 8 C3.34 8.66 2.68 9.32 2 10 C-0.625 9.625 -0.625 9.625 -3 9 C-2.34 8.67 -1.68 8.34 -1 8 C-0.53476937 6.10466658 -0.53476937 6.10466658 -0.375 3.9375 C-0.25125 2.638125 -0.1275 1.33875 0 0 Z " fill="#E4CEB1" transform="translate(204,218)"/>
<path d="M0 0 C2.31 0 4.62 0 7 0 C7 0.66 7 1.32 7 2 C6.01 2.33 5.02 2.66 4 3 C3.67 3.66 3.34 4.32 3 5 C0.69 5 -1.62 5 -4 5 C-4 4.34 -4 3.68 -4 3 C-2.68 3 -1.36 3 0 3 C0 2.01 0 1.02 0 0 Z " fill="#DEC7AA" transform="translate(237,251)"/>
<path d="M0 0 C0.66 0.33 1.32 0.66 2 1 C0.21371169 2.67277835 -1.5785075 4.33824443 -3.375 6 C-4.13683594 6.71542969 -4.13683594 6.71542969 -4.9140625 7.4453125 C-8.7734375 11 -8.7734375 11 -11 11 C-9.0648965 5.77522055 -4.47545126 2.98363417 0 0 Z " fill="#B48052" transform="translate(279,215)"/>
<path d="M0 0 C10.84359519 10.7438075 10.84359519 10.7438075 11 17 C10.34 17 9.68 17 9 17 C8.79375 16.154375 8.5875 15.30875 8.375 14.4375 C6.88208137 10.70520343 5.08602262 8.57126072 2.33984375 5.7109375 C0.85389408 3.81342743 0.41601401 2.35227673 0 0 Z " fill="#C5996D" transform="translate(306,189)"/>
<path d="M0 0 C0.33 0 0.66 0 1 0 C1.103125 1.11375 1.20625 2.2275 1.3125 3.375 C1.6528125 5.169375 1.6528125 5.169375 2 7 C2.99 7.66 3.98 8.32 5 9 C2.69 10.65 0.38 12.3 -2 14 C-2 11 -2 11 -1 9 C-0.77532169 7.46331135 -0.59203195 5.92031946 -0.4375 4.375 C-0.35371094 3.55773437 -0.26992188 2.74046875 -0.18359375 1.8984375 C-0.12300781 1.27195313 -0.06242187 0.64546875 0 0 Z " fill="#AC7043" transform="translate(265,198)"/>
<path d="M0 0 C3 1 3 1 5 4 C5.309375 5.175625 5.61875 6.35125 5.9375 7.5625 C6.67850977 11.24149406 6.67850977 11.24149406 10 13 C8.35 13.33 6.7 13.66 5 14 C4.80664062 13.32453125 4.61328125 12.6490625 4.4140625 11.953125 C4.15367187 11.06109375 3.89328125 10.1690625 3.625 9.25 C3.36976563 8.36828125 3.11453125 7.4865625 2.8515625 6.578125 C2.0790066 4.23919428 1.16374324 2.16557438 0 0 Z " fill="#B7865F" transform="translate(288,178)"/>
<path d="M0 0 C-0.33 0.99 -0.66 1.98 -1 3 C-1.66 3 -2.32 3 -3 3 C-3.28875 3.598125 -3.5775 4.19625 -3.875 4.8125 C-5 7 -5 7 -7 10 C-7.33 8.02 -7.66 6.04 -8 4 C-3.375 0 -3.375 0 0 0 Z " fill="#BD8E60" transform="translate(280,245)"/>
<path d="M0 0 C0.66 0 1.32 0 2 0 C2 1.65 2 3.3 2 5 C4.97 5 7.94 5 11 5 C11 5.33 11 5.66 11 6 C5.555 7.485 5.555 7.485 0 9 C0 6.03 0 3.06 0 0 Z " fill="#B28056" transform="translate(271,168)"/>
<path d="M0 0 C1.32 0.33 2.64 0.66 4 1 C4.33 3.31 4.66 5.62 5 8 C4.01 8.33 3.02 8.66 2 9 C1.34 6.03 0.68 3.06 0 0 Z " fill="#FCF5E1" transform="translate(315,198)"/>
<path d="M0 0 C0.99 0.33 1.98 0.66 3 1 C2.35546875 1.22429687 1.7109375 1.44859375 1.046875 1.6796875 C-1.24388852 2.82889456 -1.24388852 2.82889456 -1.609375 5.3828125 C-1.65578125 6.28773438 -1.7021875 7.19265625 -1.75 8.125 C-1.80671875 9.03507813 -1.8634375 9.94515625 -1.921875 10.8828125 C-1.96054687 11.93082031 -1.96054687 11.93082031 -2 13 C-2.33 13 -2.66 13 -3 13 C-3.66 9.7 -4.32 6.4 -5 3 C-2.6875 1.4375 -2.6875 1.4375 0 0 Z " fill="#C29067" transform="translate(282,186)"/>
<path d="M0 0 C1.35158203 0.15275391 1.35158203 0.15275391 2.73046875 0.30859375 C3.41753906 0.39238281 4.10460937 0.47617188 4.8125 0.5625 C4.8125 0.8925 4.8125 1.2225 4.8125 1.5625 C-1.6225 2.0575 -1.6225 2.0575 -8.1875 2.5625 C-8.1875 1.9025 -8.1875 1.2425 -8.1875 0.5625 C-4.98734144 -0.50421952 -3.30205706 -0.38595472 0 0 Z " fill="#B0794B" transform="translate(302.1875,239.4375)"/>
<path d="M0 0 C0 2.31 0 4.62 0 7 C-0.33 5.68 -0.66 4.36 -1 3 C-2.423125 3.309375 -2.423125 3.309375 -3.875 3.625 C-4.90625 3.74875 -5.9375 3.8725 -7 4 C-7.66 3.34 -8.32 2.68 -9 2 C-5.5647952 -0.29013653 -4.014669 -0.17842973 0 0 Z " fill="#C79968" transform="translate(270,250)"/>
<path d="M0 0 C0 0.66 0 1.32 0 2 C-1.57701982 2.55978184 -3.16199242 3.09719401 -4.75 3.625 C-5.63171875 3.92664063 -6.5134375 4.22828125 -7.421875 4.5390625 C-10.41017471 5.07333427 -11.49923002 4.62433191 -14 3 C-10.97265625 2.26757812 -10.97265625 2.26757812 -7.9453125 1.53515625 C-2.3649635 0 -2.3649635 0 0 0 Z " fill="#C08E61" transform="translate(263,253)"/>
<path d="M0 0 C0.99 0.66 1.98 1.32 3 2 C0.23776722 4.76223278 -2.20706617 4.57856291 -6 5 C-6 4.01 -6 3.02 -6 2 C-3.1875 0.875 -3.1875 0.875 0 0 Z " fill="#F0DDBE" transform="translate(290,244)"/>
<path d="M0 0 C0.33 0.66 0.66 1.32 1 2 C-1.64 2.33 -4.28 2.66 -7 3 C-7 2.34 -7 1.68 -7 1 C-7.66 0.67 -8.32 0.34 -9 0 C-5.67032582 -0.83241855 -3.24733335 -1.2757381 0 0 Z " fill="#C49B71" transform="translate(287,244)"/>
<path d="M0 0 C0.75 1.75 0.75 1.75 1 4 C-0.8125 6.25 -0.8125 6.25 -3 8 C-3.66 8 -4.32 8 -5 8 C-5 7.34 -5 6.68 -5 6 C-4.01 5.34 -3.02 4.68 -2 4 C-0.80767387 1.94996045 -0.80767387 1.94996045 0 0 Z " fill="#B37E53" transform="translate(299,207)"/>
<path d="M0 0 C2.0625 2.25 2.0625 2.25 4 5 C3.67 6.32 3.34 7.64 3 9 C1.68 6.36 0.36 3.72 -1 1 C-0.67 0.67 -0.34 0.34 0 0 Z " fill="#B37E4F" transform="translate(234,199)"/>
</svg>
